<svg width="64" height="64" viewBox="0 0 64 64" fill="none" xmlns="http://www.w3.org/2000/svg">
<path d="M47.8667 42.2L41.2667 35.6L44.0667 32.8L47.8667 36.5333L57.2667 27.1333L60.0667 29.9333L47.8667 42.2ZM29.3333 55.9333L22.7333 49.8667C18.8667 46.3111 15.6556 43.2667 13.1 40.7333C10.5444 38.2 8.48889 35.9111 6.93333 33.8667C5.37777 31.8222 4.27778 29.9 3.63333 28.1C2.98889 26.3 2.66666 24.3778 2.66666 22.3333C2.66666 18.3333 4.01111 14.9444 6.7 12.1667C9.38889 9.38889 12.7111 8 16.6667 8C19.2 8 21.5444 8.58889 23.7 9.76667C25.8556 10.9444 27.7333 12.6667 29.3333 14.9333C31.2 12.5333 33.1778 10.7778 35.2667 9.66667C37.3556 8.55556 39.6 8 42 8C45.6 8 48.6111 9.22222 51.0333 11.6667C53.4556 14.1111 54.9333 17.0667 55.4667 20.5333H51.5333C51.1333 18.0889 50.1 16.0556 48.4333 14.4333C46.7667 12.8111 44.6222 12 42 12C39.7333 12 37.6222 12.6889 35.6667 14.0667C33.7111 15.4444 32.1333 17.4 30.9333 19.9333H27.6667C26.5111 17.4444 24.9556 15.5 23 14.1C21.0444 12.7 18.9333 12 16.6667 12C13.7333 12 11.3333 12.9889 9.46666 14.9667C7.6 16.9444 6.66666 19.4 6.66666 22.3333C6.66666 24.0667 7.01111 25.7556 7.7 27.4C8.38889 29.0444 9.58889 30.9111 11.3 33C13.0111 35.0889 15.3333 37.5333 18.2667 40.3333C21.2 43.1333 24.8889 46.5778 29.3333 50.6667C30.7556 49.3778 32.1 48.1778 33.3667 47.0667C34.6333 45.9556 35.8889 44.8667 37.1333 43.8L37.5667 44.2333C37.8556 44.5222 38.1778 44.8333 38.5333 45.1667C38.8889 45.5 39.2111 45.8111 39.5 46.1L39.9333 46.5333C38.7333 47.6 37.4889 48.6889 36.2 49.8C34.9111 50.9111 33.5333 52.1333 32.0667 53.4667L29.3333 55.9333Z" fill="#FACC15"/>
<rect x="0.5" y="0.5" width="63" height="63" stroke="#171717"/>
</svg>
