<svg width="64" height="64" viewBox="0 0 64 64" fill="none" xmlns="http://www.w3.org/2000/svg">
<path d="M11.3239 31.6667C9.64132 31.6667 8.22223 31.0858 7.06668 29.924C5.91112 28.7622 5.33334 27.3399 5.33334 25.6573C5.33334 23.9747 5.91425 22.5556 7.07608 21.4C8.2379 20.2445 9.66012 19.6667 11.3427 19.6667C13.0254 19.6667 14.4445 20.2476 15.6 21.4094C16.7556 22.5713 17.3333 23.9935 17.3333 25.6761C17.3333 27.3587 16.7524 28.7778 15.5906 29.9334C14.4288 31.0889 13.0066 31.6667 11.3239 31.6667ZM23.6573 20.3334C21.9747 20.3334 20.5556 19.7525 19.4 18.5906C18.2445 17.4288 17.6667 16.0066 17.6667 14.324C17.6667 12.6414 18.2476 11.2223 19.4094 10.0667C20.5712 8.91115 21.9935 8.33337 23.6761 8.33337C25.3587 8.33337 26.7778 8.91429 27.9333 10.0761C29.0889 11.2379 29.6667 12.6602 29.6667 14.3428C29.6667 16.0254 29.0858 17.4445 27.9239 18.6C26.7621 19.7556 25.3399 20.3334 23.6573 20.3334ZM40.3239 20.3334C38.6413 20.3334 37.2222 19.7525 36.0667 18.5906C34.9111 17.4288 34.3333 16.0066 34.3333 14.324C34.3333 12.6414 34.9143 11.2223 36.0761 10.0667C37.2379 8.91115 38.6601 8.33337 40.3427 8.33337C42.0254 8.33337 43.4445 8.91429 44.6 10.0761C45.7556 11.2379 46.3333 12.6602 46.3333 14.3428C46.3333 16.0254 45.7524 17.4445 44.5906 18.6C43.4288 19.7556 42.0066 20.3334 40.3239 20.3334ZM52.6573 31.6667C50.9747 31.6667 49.5556 31.0858 48.4 29.924C47.2445 28.7622 46.6667 27.3399 46.6667 25.6573C46.6667 23.9747 47.2476 22.5556 48.4094 21.4C49.5712 20.2445 50.9935 19.6667 52.6761 19.6667C54.3587 19.6667 55.7778 20.2476 56.9333 21.4094C58.0889 22.5713 58.6667 23.9935 58.6667 25.6761C58.6667 27.3587 58.0858 28.7778 56.9239 29.9334C55.7621 31.0889 54.3399 31.6667 52.6573 31.6667ZM17.7333 59C15.8667 59 14.3333 58.2995 13.1333 56.8983C11.9333 55.4972 11.3333 53.8422 11.3333 51.9334C11.3333 50.0667 11.9 48.4112 13.0333 46.9667C14.1667 45.5223 15.3778 44.1334 16.6667 42.8C17.6445 41.8223 18.5556 40.7889 19.4 39.7C20.2445 38.6112 21.0445 37.4889 21.8 36.3334C23.0889 34.3778 24.5333 32.5556 26.1333 30.8667C27.7333 29.1778 29.6889 28.3334 32 28.3334C34.3111 28.3334 36.2778 29.1778 37.9 30.8667C39.5222 32.5556 40.9778 34.4 42.2667 36.4C43.0222 37.5556 43.8111 38.6667 44.6333 39.7334C45.4556 40.8 46.3556 41.8223 47.3333 42.8C48.6222 44.1334 49.8333 45.5223 50.9667 46.9667C52.1 48.4112 52.6667 50.0667 52.6667 51.9334C52.6667 53.8422 52.0667 55.4972 50.8667 56.8983C49.6667 58.2995 48.1333 59 46.2667 59C43.8667 59 41.4889 58.8 39.1333 58.4C36.7778 58 34.4 57.8 32 57.8C29.6 57.8 27.2222 58 24.8667 58.4C22.5111 58.8 20.1333 59 17.7333 59Z" fill="#FACC15"/>
<rect x="0.5" y="0.5" width="63" height="63" stroke="#171717"/>
</svg>
